# xmcd
#
# Track frame offsets: 
#        150
#        37031
#        56157
#        71570
#        87607
#        117386
#        136010
#        152865
#        189944
#        209748
#        229965
#        264089
#        273806
#        287449
#
# Disc length: 4026 seconds
#
# Revision: 0
# Processed by: cddbd v1.5.2PL0 Copyright (c) Steve Scherf et al.
# Submitted via: ExactAudioCopy v0.99pb4
#
DISCID=ce0fb80e
DTITLE=Westernhagen - Wenn das Licht auf dich fällt [CD1)
DYEAR=2007
DGENRE=Rock
TTITLE0=Weißt Du, dass ich glücklich bin
TTITLE1=Es geht mir gut
TTITLE2=Willenlos
TTITLE3=Daneben
TTITLE4=Versuch Dich zu erinnern
TTITLE5=Eins
TTITLE6=Schweigen ist feige
TTITLE7=Du entkommst mir nicht
TTITLE8=Nur ein Traum
TTITLE9=Gejammer
TTITLE10=Kein Gefühl
TTITLE11=Baby, Please Don't Go/Suzie Q (Medley)
TTITLE12=Mit Pfefferminz bin ich Dein Prinz
TTITLE13=Dicke
EXTD=
EXTT0=
EXTT1=
EXTT2=
EXTT3=
EXTT4=
EXTT5=
EXTT6=
EXTT7=
EXTT8=
EXTT9=
EXTT10=
EXTT11=
EXTT12=
EXTT13=
PLAYORDER=
